<svg width="754" height="836" viewBox="0 0 754 836" fill="none" xmlns="http://www.w3.org/2000/svg">
<path d="M732.5 574.07V258.07C732.486 244.217 728.829 230.61 721.896 218.616C714.963 206.622 704.998 196.662 693 189.735L416.5 31.7354C404.49 24.8017 390.867 21.1514 377 21.1514C363.133 21.1514 349.51 24.8017 337.5 31.7354L61 189.735C49.0024 196.662 39.0372 206.622 32.1042 218.616C25.1712 230.61 21.5142 244.217 21.5 258.07V574.07C21.5142 587.924 25.1712 601.53 32.1042 613.524C39.0372 625.518 49.0024 635.478 61 642.405L337.5 800.405C349.51 807.339 363.133 810.989 377 810.989C390.867 810.989 404.49 807.339 416.5 800.405L693 642.405C704.998 635.478 714.963 625.518 721.896 613.524C728.829 601.53 732.486 587.924 732.5 574.07Z" stroke="#6B278E" strokeWidth="36" strokeLinecap="round" strokeLinejoin="round"/>
<path d="M199.25 108.333L377 211.033L554.75 108.333" stroke="#6B278E" strokeWidth="36" strokeLinecap="round" strokeLinejoin="round"/>
<path d="M199.25 723.705V518.7L21.5 416" stroke="#6B278E" strokeWidth="36" strokeLinecap="round" strokeLinejoin="round"/>
<path d="M732.5 416L554.75 518.7V723.705" stroke="#6B278E" strokeWidth="36" strokeLinecap="round" strokeLinejoin="round"/>
<path d="M32.1445 216.958L376.979 416.433L721.814 216.958" stroke="#6B278E" strokeWidth="36" strokeLinecap="round" strokeLinejoin="round"/>
<path d="M377 811V416" stroke="#6B278E" strokeWidth="36" strokeLinecap="round" strokeLinejoin="round"/>
</svg>
