<svg width="75" height="75" viewBox="0 0 75 75" fill="none" xmlns="http://www.w3.org/2000/svg">
<g clip-path="url(#clip0_2545_35598)">
<path d="M63.5443 60.326L56.7119 16.9286C56.5755 16.1257 55.9028 15.5242 55.0874 15.5242C54.6348 15.5242 54.2256 15.7102 53.9249 16.0141L10.8438 60.326L34.683 74.0529C35.3743 74.459 36.2051 74.6977 37.0886 74.6977C37.9691 74.6977 38.7968 74.459 39.5098 74.0436L63.5443 60.326ZM22.8409 1.18349C22.5619 0.656479 22.0194 0.296875 21.3901 0.296875C20.5686 0.296875 19.8866 0.913782 19.7626 1.72599L12.5891 48.8837L30.56 15.9831L22.844 1.19279L22.8409 1.18349ZM44.1722 22.4559L38.6511 11.6616C38.369 11.1222 37.8234 10.7626 37.194 10.7626C36.5647 10.7626 36.0191 11.1222 35.7401 11.6523L35.737 11.6616L11.4948 56.0479L44.1722 22.4559Z" fill="white"/>
</g>
<defs>
<clipPath id="clip0_2545_35598">
<rect width="74.4008" height="74.4008" fill="white" transform="translate(0 0.296875)"/>
</clipPath>
</defs>
</svg>
