<svg width="100" height="100" viewBox="0 0 100 100" fill="none" xmlns="http://www.w3.org/2000/svg">
<path d="M84.6927 49.6065C84.2277 49.0857 77.8075 41.0473 76.676 39.6833C75.5445 38.3193 74.9927 38.5673 74.2983 38.6665C73.6007 38.7688 65.4787 40.1328 64.5362 40.2909C63.5938 40.449 62.9986 40.8272 63.5783 41.6394C64.0929 42.3617 69.4343 49.932 70.6123 51.5998L49.3802 56.687L32.4943 28.455C31.8216 27.4568 31.6821 27.1095 30.1538 27.1808C28.6254 27.2521 16.9073 28.2225 16.0734 28.2938C15.2395 28.3651 14.3219 28.734 15.1589 30.7056C15.9959 32.6772 29.3012 61.3494 29.6701 62.1833C30.0391 63.0173 31.0063 64.372 33.2631 63.8295C35.5757 63.2746 43.5986 61.1789 47.9821 60.0319C50.2978 64.2263 55.0222 72.7328 55.8964 73.9542C57.0621 75.5817 57.865 75.312 59.6568 74.7695C61.0549 74.3448 81.5306 66.9822 82.4544 66.604C83.3783 66.2258 83.9456 65.953 83.3225 65.0292C82.8637 64.3503 77.4634 57.1148 74.6331 53.3296L84.1967 50.7814C85.0523 50.5489 85.1701 50.1304 84.7051 49.6065H84.6927ZM46.091 57.4992C45.8368 57.5519 33.9451 60.4008 33.3096 60.5434C32.6741 60.686 32.6741 60.6147 32.6028 60.3977C32.5315 60.1807 18.4635 31.1737 18.2682 30.811C18.0729 30.4483 18.0822 30.16 18.2682 30.16C18.4542 30.16 29.4996 29.1711 29.8903 29.1525C30.2809 29.1339 30.2406 29.2145 30.3832 29.4625L46.2367 56.8265C46.5095 57.2977 46.3452 57.4465 46.091 57.4992ZM79.621 63.783C79.8101 64.0806 79.9992 64.2697 79.404 64.4867C78.8088 64.7037 59.2755 71.2943 58.8973 71.4587C58.5191 71.623 58.2184 71.6756 57.7317 70.9688C57.245 70.262 50.8899 59.2662 50.8899 59.2662L71.5919 53.8784C72.1065 53.7172 72.2708 53.6086 72.5963 54.1233C72.9218 54.6379 79.4319 63.4854 79.621 63.783ZM80.9478 49.0857C80.4828 49.188 72.8815 51.0728 72.8815 51.0728L66.6629 42.5415C66.4893 42.2966 66.3436 42.0486 66.7776 41.9897C67.2116 41.9308 74.2766 40.6536 74.5959 40.5823C74.9152 40.511 75.1911 40.4242 75.5817 40.9605C75.9723 41.4968 81.3508 48.3014 81.5523 48.5618C81.7538 48.8222 81.4066 48.9834 80.9416 49.0826L80.9478 49.0857Z" fill="white"/>
</svg>
