<svg width="75" height="75" viewBox="0 0 75 75" fill="none" xmlns="http://www.w3.org/2000/svg">
<path d="M65.7441 17.6361L40.1125 2.75303C38.496 1.83232 36.3913 1.83232 34.762 2.75303L8.85655 17.6361C7.18834 18.5958 6.00781 20.3994 6.00781 22.3286V52.0552C6.00781 53.9844 7.21915 55.7886 8.88736 56.7535L15.7317 60.6409C19.003 62.2522 20.1591 62.2522 21.6477 62.2522C26.4913 62.2522 29.2581 59.3232 29.2581 54.2146V24.8669C29.2581 24.4525 29.0424 23.8358 28.6355 23.8358H25.3671C24.9533 23.8358 24.0268 24.4525 24.0268 24.8664V54.214C24.0268 56.4786 21.9784 58.7321 18.1503 56.818L11.0781 52.7417C10.8317 52.608 10.6579 52.3389 10.6579 52.0552V22.3286C10.6579 22.0484 10.9805 21.7671 11.2287 21.6235L37.0504 6.76603C37.2916 6.62943 37.6462 6.62943 37.8868 6.76603L63.3935 21.62C63.6377 21.7671 63.5516 22.0397 63.5516 22.3286V52.0552C63.5516 52.3389 63.658 52.615 63.4168 52.7516L37.7915 67.6178C37.5718 67.7497 37.2992 67.7497 37.0585 67.6178L30.4863 63.6949C30.2881 63.5798 30.0527 63.5385 29.8626 63.6449C28.0339 64.6813 27.6968 64.819 25.9815 65.4136C25.5595 65.5607 24.937 65.8159 26.2198 66.5349L34.8213 71.6232C35.6449 72.0998 36.5807 72.3475 37.5224 72.3475C38.4768 72.3475 39.4115 72.0998 40.2351 71.6232L65.7435 56.7535C67.4118 55.7816 68.2023 53.9844 68.2023 52.0552V22.3286C68.2023 20.3994 67.4118 18.6004 65.7441 17.6361ZM45.4809 47.3447C38.6651 47.3447 37.1637 45.4643 36.6633 42.075C36.6052 41.71 36.2953 41.2735 35.9239 41.2735H32.5927C32.1806 41.2735 31.8493 41.7734 31.8493 42.1837C31.8493 46.5234 34.2086 51.7814 45.4815 51.7814C53.6418 51.7814 58.3203 48.6107 58.3203 42.9992C58.3203 37.4354 54.5613 35.9753 46.6475 34.9279C38.6483 33.8706 37.8357 33.3364 37.8357 31.4625C37.8357 29.9175 38.5239 27.8569 44.4469 27.8569C49.7392 27.8569 51.6899 28.9927 52.4926 32.5599C52.5612 32.8953 52.8676 33.1359 53.2134 33.1359H56.558C56.7637 33.1359 56.9602 33.0528 57.1043 32.9057C57.2438 32.7476 57.3177 32.5494 57.2991 32.3367C56.7812 26.1939 52.7002 23.3313 44.4463 23.3313C37.1045 23.3313 32.7247 26.4317 32.7247 31.6287C32.7247 37.2657 37.0824 38.8235 44.1301 39.5204C52.5612 40.347 53.2169 41.5792 53.2169 43.2375C53.2169 46.1177 50.9047 47.3447 45.4809 47.3447Z" fill="white"/>
</svg>
