<svg width="76" height="76" viewBox="0 0 76 76" fill="none" xmlns="http://www.w3.org/2000/svg">
<path d="M24.7825 31.059H15.5363L11.5391 51.2994H16.2868L17.2867 46.0528H21.7851C26.0317 46.3022 30.7818 42.8038 30.7818 36.8067C30.7818 33.3082 28.782 31.3084 24.7848 31.059H24.7825ZM21.284 42.305H18.2843L19.5336 34.8092H22.7827C24.5307 34.8092 25.7824 35.5597 25.7824 37.0584C25.533 41.3074 23.5332 42.0556 21.284 42.305ZM41.5243 31.059H37.026L38.0259 25.8125H33.2781L29.2808 46.0528H34.0286L36.2778 34.8092H40.0256C41.7761 34.8092 41.7761 35.5598 41.5243 36.809L39.7763 46.0552H44.7734L46.5215 35.8091C47.0203 33.3106 45.5216 31.3084 41.5243 31.059ZM58.2662 31.059H49.0201L45.0228 51.2994H49.7706L50.7705 46.0528H55.2688C59.5178 46.3022 64.2656 42.8038 64.2656 36.8067C64.2656 33.3082 62.2635 31.3084 58.2662 31.059ZM54.7677 42.305H51.768L53.0173 34.8092H56.2664C58.0168 34.8092 59.2661 35.5597 59.2661 37.0584C59.0167 41.3074 57.0169 42.0556 54.7677 42.305Z" fill="white"/>
</svg>
