<svg width="79" height="75" viewBox="0 0 79 75" fill="none" xmlns="http://www.w3.org/2000/svg">
<g clip-path="url(#clip0_2545_35600)">
<path d="M55.3617 51.9988C58.1301 51.7229 60.2753 49.4041 60.2753 46.5862C60.2753 46.4746 60.2722 46.363 60.266 46.2514V46.2669C60.1203 43.2815 57.6805 40.9162 54.6828 40.8852H54.4813C51.4805 40.9968 49.0903 43.4551 49.0903 46.4715C49.0903 46.5397 49.0903 46.6079 49.0934 46.6792V46.6699C49.174 48.1362 49.7755 49.4506 50.7117 50.4426L50.7086 50.4395C47.0288 57.303 41.4054 62.7157 34.576 66.0358L34.3621 66.1288C30.6668 68.1748 26.2586 69.3776 21.5682 69.3776C20.3809 69.3776 19.2091 69.3001 18.0652 69.1513L18.2016 69.1668C13.9825 68.7607 10.3492 66.5504 8.04279 63.3264L8.01489 63.283C6.35017 60.9424 5.35506 58.0284 5.35506 54.8788C5.35506 52.284 6.03086 49.8474 7.21818 47.7332L7.18098 47.8076C8.8767 44.596 11.1893 41.9237 13.9825 39.8653L14.0476 39.8219C13.5174 38.4176 13.0431 36.725 12.7083 34.9859L12.6742 34.7812C-1.84323 45.1633 -0.370709 59.3645 4.03754 66.0761C7.89088 70.9928 13.8306 74.1238 20.5018 74.1238C20.8056 74.1238 21.1063 74.1176 21.407 74.1052H21.3636C21.4721 74.1083 21.6023 74.1083 21.7325 74.1083C23.7383 74.1083 25.6882 73.8758 27.5606 73.4387L27.387 73.4728C39.8119 71.1974 49.9863 63.19 55.2067 52.3491L55.3059 52.1197L55.3617 51.9988Z" fill="white"/>
<path d="M72.8505 39.7635C65.4011 31.2694 54.5293 25.9373 42.4082 25.9373C42.0393 25.9373 41.6673 25.9435 41.3014 25.9528H41.3572H39.6894C38.8121 24.1951 37.0234 23.0078 34.9588 23.0078C34.8968 23.0078 34.8379 23.0078 34.7759 23.0109H34.7852H34.6643C31.6696 23.0543 29.2578 25.4909 29.2578 28.4918C29.2578 28.5817 29.2609 28.6685 29.264 28.7553V28.7429C29.4035 31.7282 31.8432 34.0997 34.8441 34.1307H35.089C37.3024 34.0439 39.1717 32.6675 39.9777 30.7393L39.9901 30.7021H41.8037C49.7211 30.7114 57.0682 33.1418 63.1443 37.299L63.0141 37.2153C67.7602 40.2533 71.4245 44.6182 73.5294 49.7859L73.5945 49.9657C74.4005 51.6459 74.8686 53.6176 74.8686 55.6977C74.8686 57.8987 74.3447 59.9757 73.4116 61.811L73.4457 61.7335C71.037 66.6501 66.0707 69.9733 60.3295 69.9733C60.1187 69.9733 59.911 69.9702 59.7033 69.9609H59.7343C56.2095 69.8865 52.8832 69.1115 49.8668 67.7692L50.028 67.8343C48.8531 68.8139 46.8939 70.426 45.471 71.4087C49.2344 73.2563 53.6489 74.3816 58.3144 74.4901H58.3516C58.5345 74.4963 58.7484 74.4994 58.9624 74.4994C66.8736 74.4994 73.8022 70.2989 77.6432 64.0089L77.699 63.9128C78.7592 61.3987 79.373 58.4784 79.373 55.4125C79.373 49.2744 76.9054 43.7129 72.9094 39.6674L72.9125 39.6705L72.866 39.7697L72.8505 39.7635Z" fill="white"/>
<path d="M22.2059 53.7818C22.3423 56.7702 24.7883 59.1479 27.7953 59.1696H27.9937C30.9945 59.0673 33.3909 56.6059 33.3909 53.5896C33.3909 50.5205 30.9139 48.0281 27.848 48.0064H27.6403C27.6093 48.0033 27.5721 48.0033 27.538 48.0033C27.3117 48.0033 27.0947 48.0374 26.8901 48.1056L26.9056 48.1025C23.5886 42.7053 21.6262 36.1674 21.6262 29.1706C21.6262 28.0422 21.6758 26.9262 21.7781 25.8257L21.7688 25.9683C22.0509 20.0596 24.221 14.7058 27.6806 10.4464L27.6434 10.496C30.7155 7.17584 35.0432 5.06162 39.8699 4.90662H39.8978C50.4752 4.70821 54.8865 17.8896 55.2275 23.1286L60.1318 24.5949C58.991 8.53366 49.0026 0.101562 39.4514 0.101562C29.7421 0.606868 21.6851 7.13864 18.923 16.0078L18.8796 16.169C17.5218 20.0813 16.7344 24.5887 16.7344 29.2791C16.7344 37.302 19.0315 44.7886 22.9995 51.1157L22.9003 50.9452C22.457 51.6148 22.1935 52.4364 22.1935 53.3199C22.1935 53.4842 22.2028 53.6454 22.2214 53.8035L22.2183 53.7849L22.2059 53.7818Z" fill="white"/>
</g>
<defs>
<clipPath id="clip0_2545_35600">
<rect width="77.5009" height="74.4008" fill="white" transform="translate(0.992188 0.101562)"/>
</clipPath>
</defs>
</svg>
