<svg width="75" height="75" viewBox="0 0 75 75" fill="none" xmlns="http://www.w3.org/2000/svg">
<g clip-path="url(#clip0_2545_35604)">
<path d="M73.1477 74.7993H1.84689C1.4358 74.7993 1.04155 74.636 0.750865 74.3453C0.46018 74.0546 0.296875 73.6603 0.296875 73.2493V1.94845C0.296875 1.53736 0.46018 1.14311 0.750865 0.852427C1.04155 0.561742 1.4358 0.398438 1.84689 0.398438L73.1477 0.398438C73.5588 0.398438 73.953 0.561742 74.2437 0.852427C74.5344 1.14311 74.6977 1.53736 74.6977 1.94845V73.2493C74.6977 73.6603 74.5344 74.0546 74.2437 74.3453C73.953 74.636 73.5588 74.7993 73.1477 74.7993ZM3.39691 71.6992H71.5977V3.49847H3.39691V71.6992ZM56.609 68.9526C55.5012 68.9665 54.3941 68.8919 53.2982 68.7294C50.1051 68.1559 47.064 66.5625 45.1668 64.4607C42.2775 61.2707 42.9038 60.2477 43.1394 59.8633C43.3781 59.5006 43.6447 59.3115 44.3422 58.9116L44.3515 58.9054C44.6708 58.7256 45.8612 58.0374 46.9865 57.3833L49.0387 56.196C49.3775 55.9984 49.7788 55.9371 50.1611 56.0246C50.5434 56.1121 50.8781 56.3419 51.0971 56.6672L51.528 57.3027C52.0303 58.0653 53.1556 59.1162 53.6702 59.389C55.4837 60.3469 57.8986 60.1082 58.8503 59.2588C58.98 59.1576 59.085 59.0283 59.1575 58.8806C59.23 58.733 59.2681 58.5708 59.2688 58.4063C59.2657 57.7181 59.2347 57.6778 59.0053 57.343C58.6705 56.8625 57.4801 56.2115 54.7645 55.0304C50.9142 53.3718 49.1565 52.2775 47.5352 50.5322C46.4825 49.3443 45.7008 47.9417 45.2443 46.4216C44.8785 45.0668 44.8041 42.3109 45.0707 41.0492C45.9542 36.9044 49.1441 33.9253 53.6082 33.079C55.0807 32.8 58.2024 32.8868 59.678 33.2557C61.6671 33.7284 63.475 34.7713 64.8799 36.2565C64.9109 36.2937 66.7306 38.2592 66.9755 39.245C67.27 40.3486 67.3258 40.5532 61.3366 44.2732C60.4469 44.8684 59.5075 44.4902 58.5868 43.12C57.8645 42.0722 57.2879 41.849 56.4137 41.787C55.7224 41.7343 55.1675 41.8707 54.8606 42.1621C54.6405 42.3698 54.5289 42.686 54.532 43.1045C54.5188 43.2973 54.5507 43.4904 54.625 43.6687L54.6808 43.7741C54.9133 44.2577 55.4961 44.7041 58.0319 45.7985C63.4477 48.1297 65.8037 49.7138 67.3568 52.0698C69.1518 54.7916 69.5548 58.9426 68.3395 62.1635C67.0034 65.6759 63.7794 68.0288 59.2595 68.7914C58.3814 68.9118 57.4953 68.9657 56.609 68.9526ZM46.5649 61.2087C46.8749 61.6489 47.2221 62.1139 47.4639 62.3805C48.9178 63.9926 51.3018 65.2233 53.8438 65.6759C55.0032 65.8836 57.694 65.9146 58.7356 65.7317C62.1364 65.1551 64.5141 63.4997 65.4441 61.0599C66.3028 58.7876 66.0145 55.6535 64.7714 53.7717C63.5996 51.9923 61.5877 50.6965 56.8043 48.6381C54.0143 47.4291 52.6968 46.6758 51.9497 45.2311L51.928 45.1877C51.6026 44.5815 51.4322 43.9042 51.432 43.2161C51.4289 41.818 51.8815 40.702 52.7433 39.8929C53.7012 38.9939 55.0466 38.5661 56.6338 38.6839C58.4008 38.8079 59.7121 39.5054 60.8282 40.9221C61.7427 40.3331 62.6789 39.7069 63.3702 39.2357C63.1376 38.9449 62.8946 38.6626 62.6417 38.3894C61.6475 37.3251 60.3571 36.5833 58.9371 36.2596C57.9172 36.0023 55.2171 35.9279 54.191 36.117C50.9483 36.7339 48.7287 38.7645 48.1087 41.6847C47.9475 42.4535 48.0095 44.7444 48.2141 45.5101C48.5396 46.6045 49.1007 47.612 49.8385 48.4459C51.1126 49.8161 52.5573 50.6965 55.9983 52.1783C59.6005 53.7438 60.791 54.4723 61.5567 55.5698C62.1736 56.4657 62.3689 57.1198 62.3689 58.2668C62.372 59.6308 61.8326 60.7933 60.8902 61.59C58.8968 63.3818 55.0745 63.6299 52.2287 62.1263C51.37 61.6737 50.1702 60.5949 49.3673 59.5843L48.5458 60.0586L46.5649 61.2087ZM33.3091 68.5744H26.7433C26.3322 68.5744 25.9379 68.4111 25.6472 68.1204C25.3566 67.8297 25.1933 67.4355 25.1933 67.0244V42.2055H17.468C17.0569 42.2055 16.6626 42.0422 16.3719 41.7515C16.0813 41.4608 15.918 41.0666 15.918 40.6555V37.7911C15.918 34.6414 15.918 34.1392 16.507 33.6866C16.5445 33.6518 16.5862 33.6216 16.631 33.5967L16.6868 33.5595L16.6899 33.5657C17.3967 33.2216 19.5419 33.234 30.0758 33.2433L42.5411 33.2774C42.9484 33.2782 43.3391 33.4393 43.6286 33.7259C43.918 34.0125 44.0831 34.4015 44.088 34.8088L44.1438 40.6462C44.1454 40.8506 44.1065 41.0534 44.0293 41.2427C43.9521 41.432 43.8381 41.6042 43.694 41.7492C43.5499 41.8942 43.3784 42.0091 43.1896 42.0875C43.0007 42.1658 42.7982 42.2059 42.5938 42.2055H34.8592V67.0244C34.8592 67.4355 34.6959 67.8297 34.4052 68.1204C34.1145 68.4111 33.7202 68.5744 33.3091 68.5744ZM28.2933 65.4744H31.7591V40.6555C31.7591 40.2444 31.9224 39.8501 32.2131 39.5595C32.5038 39.2688 32.8981 39.1055 33.3091 39.1055H41.0282L41.0034 36.3712L30.0696 36.3402C26.3888 36.3264 22.708 36.3336 19.0273 36.3619L19.0211 37.7911V39.1055H26.7464C27.1575 39.1055 27.5517 39.2688 27.8424 39.5595C28.1331 39.8501 28.2964 40.2444 28.2964 40.6555L28.2933 65.4744Z" fill="white"/>
</g>
<defs>
<clipPath id="clip0_2545_35604">
<rect width="74.4008" height="74.4008" fill="white" transform="translate(0.296875 0.398438)"/>
</clipPath>
</defs>
</svg>
