<svg width="75" height="75" viewBox="0 0 75 75" fill="none" xmlns="http://www.w3.org/2000/svg">
<path d="M11.8623 37.8117C11.8606 47.7111 17.5157 56.7408 26.4225 61.061L14.0988 27.2986C12.6214 30.6064 11.8594 34.1889 11.8623 37.8117ZM38.1498 40.0715L30.3974 62.5939C35.602 64.1264 41.1569 63.9823 46.2749 62.1818C46.203 62.0686 46.1411 61.9496 46.0898 61.8257L38.1498 40.0715ZM55.1356 36.509C55.101 33.9825 54.3637 31.5155 53.0059 29.3846C51.6174 27.6376 50.7391 25.5406 50.4682 23.3255C50.4056 20.8637 52.3448 18.8142 54.8064 18.7408C54.9211 18.7408 55.0297 18.7546 55.1409 18.7616C44.6225 9.12655 28.2851 9.84291 18.6502 20.3612C17.718 21.3787 16.869 22.4694 16.1112 23.6226C16.7174 23.6419 17.2889 23.654 17.7736 23.654C20.4752 23.654 24.659 23.3253 24.659 23.3253C25.2478 23.2913 25.7528 23.741 25.7869 24.3299C25.82 24.9024 25.3948 25.3989 24.824 25.4543C24.824 25.4543 23.4238 25.6182 21.8678 25.6997L31.2746 53.6822L36.929 36.7272L32.9041 25.6999C31.5122 25.6184 30.1946 25.4545 30.1946 25.4545C29.6076 25.3978 29.1778 24.8759 29.2343 24.289C29.2896 23.7177 29.7863 23.2924 30.359 23.3255C30.359 23.3255 34.6242 23.6542 37.1623 23.6542C39.8638 23.6542 44.0484 23.3255 44.0484 23.3255C44.637 23.2911 45.1424 23.7405 45.1769 24.3291C45.2103 24.9024 44.7846 25.3997 44.213 25.4545C44.213 25.4545 42.8117 25.6184 41.2568 25.6999L50.5925 53.4693L53.2573 45.0246C54.298 42.2938 54.9309 39.4244 55.1356 36.509ZM60.5391 28.0749C60.4943 31.2578 59.8267 34.4014 58.574 37.3277L50.6838 60.1405C62.7852 53.1011 67.0782 37.7043 60.3652 25.4188C60.4827 26.2992 60.5408 27.1866 60.5391 28.0749ZM37.6957 6.8125C20.5747 6.8125 6.69531 20.6919 6.69531 37.8129C6.69531 54.9338 20.5747 68.8132 37.6957 68.8132C54.8166 68.8132 68.696 54.9338 68.696 37.8129C68.696 20.6919 54.8166 6.8125 37.6957 6.8125ZM49.0377 64.6638C39.9656 68.5031 29.567 67.4923 21.4042 61.9776C16.7186 58.8141 13.0507 54.3601 10.8443 49.1549C7.00411 40.0828 8.01525 29.6838 13.5311 21.5214C16.694 16.8354 21.148 13.1671 26.3536 10.9617C35.4257 7.12244 45.8244 8.13321 53.9871 13.648C58.6727 16.8114 62.3406 21.2654 64.547 26.4706C68.3872 35.5427 67.3761 45.9417 61.8602 54.1041C58.6973 58.7901 54.2433 62.4584 49.0377 64.6638Z" fill="white"/>
</svg>
